<svg viewBox="0 0 433.32 420.94" xmlns="http://www.w3.org/2000/svg"><g data-name="Layer 2"><g data-name="Layer 1"><path d="M25.18 97.76h384v284A33.15 33.15 0 0 1 376 414.94H58.33a33.15 33.15 0 0 1-33.15-33.15V97.76Z" fill="#ffd987" class="fill-f78d00"></path><path d="M27.45 126.08h384.02v28.32H27.45z" fill="#5fb0d9" class="fill-c66527"></path><path d="M378.31 420.94H60.6a39.19 39.19 0 0 1-39.15-39.15v-290h396v290a39.19 39.19 0 0 1-39.14 39.15ZM33.45 103.76v278a27.18 27.18 0 0 0 27.15 27.18h317.71a27.18 27.18 0 0 0 27.15-27.15v-278Z" fill="#426572" class="fill-426572"></path><path d="M49.82 6H383.5a43.82 43.82 0 0 1 43.82 43.82v56.58a24.21 24.21 0 0 1-24.21 24.21H30.21A24.21 24.21 0 0 1 6 106.4V49.82A43.82 43.82 0 0 1 49.82 6Z" fill="#ffd987" class="fill-f78d00"></path><path d="M427.25 82.79v15.86c0 15.15-11.24 27.42-25.1 27.42H25.28C11.42 126.08.18 113.8.18 98.65V82.79c0 15.15 11.24 27.42 25.1 27.42h376.87c13.85.01 25.1-12.27 25.1-27.42Z" fill="#5fb0d9" class="fill-c66527"></path><path d="M403.11 136.61H30.21A30.24 30.24 0 0 1 0 106.4V49.82A49.88 49.88 0 0 1 49.82 0H383.5a49.88 49.88 0 0 1 49.82 49.82v56.58a30.24 30.24 0 0 1-30.21 30.21ZM49.82 12A37.87 37.87 0 0 0 12 49.82v56.58a18.23 18.23 0 0 0 18.21 18.21h372.9a18.23 18.23 0 0 0 18.21-18.21V49.82A37.87 37.87 0 0 0 383.5 12Z" fill="#426572" class="fill-426572"></path><ellipse cx="104.4" cy="31.16" rx="29.96" ry="3.83" fill="#fcfcfc" class="fill-ffffff"></ellipse><ellipse cx="45.76" cy="30.97" rx="14.98" ry="3.83" fill="#fcfcfc" class="fill-ffffff"></ellipse><rect height="55.51" rx="12" ry="12" width="157.14" x="136.25" y="200.84" fill="#fcfcfc" class="fill-ffffff"></rect><path d="M296.32 214.43v6.8H136.25v-6.8a13.46 13.46 0 0 1 13.25-13.59h133.57a13.46 13.46 0 0 1 13.25 13.59Z" fill="#e1d2d5" class="fill-e1d2d5"></path><path d="M270.43 262.35H161.68a33.75 33.75 0 1 1 0-67.51h108.75a33.75 33.75 0 1 1 0 67.51Zm-108.75-55.51a21.75 21.75 0 1 0 0 43.51h108.75a21.75 21.75 0 1 0 0-43.51ZM26.28 344.22h31.96v12H26.28z" fill="#426572" class="fill-426572"></path></g></g></svg>